<svg xmlns="http://www.w3.org/2000/svg" width="100%" height="100%" viewBox="0 0 400.4 123.5">
    <title>Košík.cz</title>
    <path id="SVGID_1_" fill="#fff"
          d="M187.7 61.5l12.6 22.9h-12.1l-9.3-17.9h-4.4v17.9h-10.8V40.2h10.8v17h4.4l9.1-17h11.6l-11.9 21.1v.2zm32.6 23.6c-10 0-18-6.6-18-16.5 0-10 8-16.7 18-16.7 10.1 0 18.1 6.7 18.1 16.7-.1 9.9-8.1 16.5-18.1 16.5zm0-24.4c-3.9 0-7.2 3-7.2 7.8s3.3 7.6 7.2 7.6 7.2-2.9 7.2-7.6c0-4.8-3.3-7.8-7.2-7.8zm35.1-.2c-1.6 0-3.1.4-3.1 1.5 0 2.4 14.9 2.8 14.9 13 0 5.4-4.8 10.1-13 10.1-8 0-12.7-4.7-12.7-4.7l4.6-7.2s3.5 3.2 8.1 3.2c1.6 0 3.1-.4 3.1-1.5 0-2.8-14.9-3.1-14.9-13.5 0-6 5.7-9.7 13.1-9.7 7.4 0 11.2 3.6 11.2 3.6l-3.6 7.6c-.2.2-3.3-2.4-7.7-2.4zm-6.2-11l-6.1-9.3h8.3l2.9 5.1h.1l2.9-5.1h8.3l-6.1 9.3h-10.3zm32.8 0h-8.3l5-9.3h10.5l-7.2 9.3zm1.6 34.8h-10.7V52.6h10.7v31.7zm30.1-17.2l10.6 17.2h-12.2L305.5 72h-3.3v12.3h-10.7V40.2h10.7V63h3l6.3-10.5h11.6l-9.4 14.6zm16.2 17.2v-3.9h3.8v3.9h-3.8zm28.4-29c-7.2 0-13.2 5.4-13.2 13.7 0 8.2 6 13.6 13.2 13.6 6.8 0 10.3-4.4 10.3-4.4l1.4 2.2s-4 4.8-11.7 4.8c-8.7 0-15.9-6.3-15.9-16.1s7.3-16.2 15.9-16.2c7.3 0 11 4.4 11 4.4l-1.6 2.1c0-.2-3.5-4.1-9.4-4.1zm24.1 26.6h18.7v2.4h-25.3v-2.1l18.7-23.5c1.1-1.4 2.4-2.8 2.4-2.8v-.1s-1.1.1-3.1.1h-17.1v-2.4h23.8v2.1l-18.8 23.5c-1.1 1.4-2.5 2.8-2.5 2.8v.1c0 .1 1.2-.1 3.2-.1z"/>
    <path id="SVGID_3_" fill="#e4162f" fill-rule="evenodd"
          d="M61.8 0c34.1 0 61.7 27.6 61.7 61.7s-27.6 61.7-61.7 61.7S.1 95.8.1 61.7 27.7 0 61.8 0z"
          clip-rule="evenodd"/>
    <path id="SVGID_5_"
          d="M61.8 113.1a51.38 51.38 0 0 1-51.2-55.7h10.3c-.1 1.4-.2 2.8-.2 4.3a41.1 41.1 0 1 0 10-26.9H18a51.2 51.2 0 0 1 43.8-24.5c28.4 0 51.4 23 51.4 51.4s-23 51.4-51.4 51.4z"
          class="st2"/>
    <path id="SVGID_7_"
          d="M46.4 57.6h30.8c2.8 0 5.1 2.3 5.1 5.1s-2.3 5.1-5.1 5.1H46.4c-2.8 0-5.1-2.3-5.1-5.1a5 5 0 0 1 5.1-5.1z"
          class="st2"/>
    <path id="SVGID_9_"
          d="M69 88.5c-4 0-7.2-3.2-7.2-7.2s3.2-7.2 7.2-7.2 7.2 3.2 7.2 7.2c0 3.9-3.2 7.2-7.2 7.2zm-18.5 0c-4 0-7.2-3.2-7.2-7.2s3.2-7.2 7.2-7.2 7.2 3.2 7.2 7.2c0 3.9-3.2 7.2-7.2 7.2z"/>
    <path id="SVGID_11_"
          d="M13.5 41.2h69.9c2.8 0 5.1 2.3 5.1 5.1s-2.3 5.1-5.1 5.1H13.5c-2.8 0-5.1-2.3-5.1-5.1a5 5 0 0 1 5.1-5.1z"
          class="st2"/>
</svg>